<svg width="15" height="14" viewBox="0 0 15 14" fill="none" xmlns="http://www.w3.org/2000/svg">
<path d="M10.5958 5.65692L6.64577 1.70692C6.46361 1.51832 6.36281 1.26571 6.36509 1.00352C6.36737 0.741321 6.47254 0.490508 6.65795 0.3051C6.84336 0.119692 7.09417 0.0145233 7.35636 0.0122448C7.61856 0.00996641 7.87116 0.110761 8.05977 0.292919L13.7168 5.94992C13.81 6.04257 13.8839 6.15273 13.9344 6.27407C13.9848 6.3954 14.0108 6.52551 14.0108 6.65692C14.0108 6.78833 13.9848 6.91844 13.9344 7.03977C13.8839 7.16111 13.81 7.27127 13.7168 7.36392L8.05977 13.0209C7.96752 13.1164 7.85717 13.1926 7.73517 13.245C7.61317 13.2974 7.48195 13.325 7.34917 13.3262C7.21639 13.3273 7.08471 13.302 6.96181 13.2517C6.83892 13.2015 6.72726 13.1272 6.63337 13.0333C6.53948 12.9394 6.46523 12.8278 6.41494 12.7049C6.36466 12.582 6.33936 12.4503 6.34052 12.3175C6.34167 12.1847 6.36926 12.0535 6.42166 11.9315C6.47407 11.8095 6.55026 11.6992 6.64577 11.6069L10.5958 7.65692H1.00977C0.744549 7.65692 0.490195 7.55156 0.302659 7.36403C0.115122 7.17649 0.00976563 6.92214 0.00976562 6.65692C0.00976563 6.3917 0.115122 6.13735 0.302659 5.94981C0.490195 5.76228 0.744549 5.65692 1.00977 5.65692H10.5958Z" fill="#0F172A"/>
</svg>
