<svg width="24" height="24" viewBox="0 0 24 24" fill="none" xmlns="http://www.w3.org/2000/svg">
<path d="M16.0268 2H7.95677C6.37992 2.00185 4.8682 2.62914 3.75329 3.74424C2.63839 4.85933 2.01135 6.37115 2.00977 7.948L2.00977 16.018C2.01162 17.5948 2.63891 19.1066 3.754 20.2215C4.8691 21.3364 6.38092 21.9634 7.95777 21.965H16.0278C17.6046 21.9631 19.1163 21.3359 20.2312 20.2208C21.3461 19.1057 21.9732 17.5938 21.9748 16.017V7.947C21.9729 6.37015 21.3456 4.85844 20.2305 3.74353C19.1154 2.62862 17.6036 2.00159 16.0268 2V2ZM19.9668 16.017C19.9668 16.5344 19.8649 17.0468 19.6669 17.5248C19.4688 18.0028 19.1786 18.4371 18.8128 18.803C18.4469 19.1689 18.0126 19.4591 17.5345 19.6571C17.0565 19.8551 16.5442 19.957 16.0268 19.957H7.95677C6.91199 19.9567 5.91009 19.5415 5.17141 18.8026C4.43273 18.0638 4.01777 17.0618 4.01777 16.017V7.947C4.01803 6.90222 4.43325 5.90032 5.17212 5.16165C5.91098 4.42297 6.91299 4.008 7.95777 4.008H16.0278C17.0725 4.00827 18.0744 4.42349 18.8131 5.16235C19.5518 5.90122 19.9668 6.90322 19.9668 7.948V16.018V16.017Z" fill="#0F172A"/>
<path d="M11.9918 6.81897C10.6232 6.82109 9.3113 7.36576 8.34366 8.33358C7.37603 9.3014 6.83162 10.6134 6.82977 11.982C6.83135 13.3509 7.37579 14.6633 8.34367 15.6314C9.31154 16.5994 10.6238 17.1441 11.9928 17.146C13.3619 17.1444 14.6744 16.5998 15.6425 15.6317C16.6106 14.6636 17.1552 13.3511 17.1568 11.982C17.1546 10.6131 16.6097 9.30085 15.6415 8.33316C14.6732 7.36547 13.3607 6.82129 11.9918 6.81997V6.81897ZM11.9918 15.138C11.155 15.138 10.3525 14.8056 9.76084 14.2139C9.16917 13.6222 8.83677 12.8197 8.83677 11.983C8.83677 11.1462 9.16917 10.3437 9.76084 9.75205C10.3525 9.16037 11.155 8.82797 11.9918 8.82797C12.8285 8.82797 13.631 9.16037 14.2227 9.75205C14.8144 10.3437 15.1468 11.1462 15.1468 11.983C15.1468 12.8197 14.8144 13.6222 14.2227 14.2139C13.631 14.8056 12.8285 15.138 11.9918 15.138Z" fill="#0F172A"/>
<path d="M17.1658 8.09497C17.8489 8.09497 18.4028 7.54115 18.4028 6.85797C18.4028 6.1748 17.8489 5.62097 17.1658 5.62097C16.4826 5.62097 15.9288 6.1748 15.9288 6.85797C15.9288 7.54115 16.4826 8.09497 17.1658 8.09497Z" fill="#0F172A"/>
</svg>
