<svg width="20" height="20" viewBox="0 0 20 20" fill="none" xmlns="http://www.w3.org/2000/svg">
<path d="M19.9688 11.719V19.098H15.6908V12.213C15.6908 10.483 15.0718 9.303 13.5238 9.303C12.3418 9.303 11.6378 10.099 11.3288 10.868C11.2158 11.143 11.1868 11.526 11.1868 11.911V19.098H6.90677C6.90677 19.098 6.96477 7.438 6.90677 6.229H11.1868V8.053L11.1588 8.095H11.1868V8.053C11.7548 7.178 12.7698 5.927 15.0428 5.927C17.8578 5.927 19.9688 7.767 19.9688 11.719ZM2.43077 0.026001C0.967766 0.026001 0.00976562 0.986001 0.00976562 2.249C0.00976562 3.484 0.939766 4.473 2.37477 4.473H2.40277C3.89577 4.473 4.82277 3.484 4.82277 2.249C4.79677 0.986001 3.89677 0.026001 2.43177 0.026001H2.43077ZM0.263766 19.098H4.54177V6.229H0.263766V19.098Z" fill="#0F172A"/>
</svg>
