<svg width="20" height="17" viewBox="0 0 20 17" fill="none" xmlns="http://www.w3.org/2000/svg">
<path d="M20.0098 1.907C19.2602 2.23437 18.4662 2.44903 17.6538 2.544C18.5065 2.04323 19.1478 1.2491 19.4578 0.309996C18.6498 0.780324 17.7685 1.1116 16.8508 1.29C16.4643 0.885202 15.9994 0.563383 15.4845 0.344174C14.9696 0.124965 14.4154 0.0129615 13.8558 0.0149961C11.5898 0.0149961 9.75277 1.825 9.75277 4.055C9.75277 4.371 9.78877 4.68 9.85877 4.975C8.23334 4.89769 6.64188 4.4824 5.18593 3.75564C3.72999 3.02887 2.44152 2.00658 1.40277 0.753996C1.03859 1.3684 0.847181 2.06978 0.848766 2.784C0.849462 3.45196 1.01659 4.10923 1.33506 4.69639C1.65352 5.28355 2.11327 5.78211 2.67277 6.147C2.02225 6.126 1.38579 5.95232 0.814766 5.64V5.69C0.814766 7.648 2.22977 9.281 4.10477 9.653C3.75238 9.7465 3.38935 9.79389 3.02477 9.794C2.75977 9.794 2.50277 9.769 2.25177 9.719C2.51985 10.5269 3.03287 11.2313 3.71958 11.7343C4.4063 12.2374 5.23261 12.5141 6.08377 12.526C4.62383 13.6505 2.83159 14.258 0.988766 14.253C0.656766 14.253 0.330766 14.233 0.00976562 14.197C1.89102 15.3877 4.07236 16.0183 6.29877 16.015C13.8458 16.015 17.9718 9.858 17.9718 4.519L17.9578 3.996C18.7626 3.42967 19.4579 2.72184 20.0098 1.907Z" fill="#0F172A"/>
</svg>
