<svg width="20" height="14" viewBox="0 0 20 14" fill="none" xmlns="http://www.w3.org/2000/svg">
<path d="M15.8218 0.0169988H4.15477C1.86477 0.0169988 0.00976562 1.852 0.00976562 4.116V9.884C0.00976562 12.148 1.86577 13.984 4.15477 13.984H15.8218C18.1118 13.984 19.9668 12.148 19.9668 9.884V4.116C19.9668 1.852 18.1108 0.0159988 15.8218 0.0159988V0.0169988ZM13.0188 7.28L7.56177 9.855C7.52848 9.87102 7.49168 9.87837 7.4548 9.87635C7.41791 9.87433 7.38214 9.86302 7.3508 9.84346C7.31946 9.8239 7.29358 9.79673 7.27557 9.76447C7.25755 9.73222 7.24799 9.69594 7.24777 9.659V4.35C7.24843 4.31287 7.25849 4.27652 7.27699 4.24432C7.29549 4.21213 7.32184 4.18514 7.35359 4.16588C7.38533 4.14661 7.42143 4.13569 7.45853 4.13414C7.49563 4.13259 7.53252 4.14045 7.56577 4.157L13.0238 6.892C13.0601 6.91013 13.0906 6.93814 13.1118 6.97283C13.1329 7.00751 13.1439 7.04745 13.1433 7.08807C13.1428 7.12869 13.1309 7.16834 13.1088 7.20246C13.0868 7.23659 13.0556 7.26381 13.0188 7.281V7.28Z" fill="#0F172A"/>
</svg>
